PathFileType	4	(X/Y/Z)	CP4_315.1s.trc																												
DataRate	CameraRate	NumFrames	NumMarkers	Units	OrigDataRate	OrigDataStartFrame	OrigNumFrames																								
30	30	17	10	mm	30	1182	9454																								
Frame#	Time	pelvis_center			manubrium			l_acromion			l_humerus_epicondyle			l_radius_styloid			l_center_hand			r_acromion			r_humerus_epicondyle			r_radius_styloid			r_center_hand		
		X1	Y1	Z1	X2	Y2	Z2	X3	Y3	Z3	X4	Y4	Z4	X5	Y5	Z5	X6	Y6	Z6	X7	Y7	Z7	X8	Y8	Z8	X9	Y9	Z9	X10	Y10	Z10
																															
1182	39.36666667	-2269.000948	-141.9970862	152.0000005	-2330	118.0000105	161.004511	-2322.000168	38	11	-2248	-166.0000126	17.90932046	-2134.550854	-332.0649601	-39.08241459	-2088.029246	-387.4873821	-56.00277983	-2324	40	307.0000005	-2237	-139.9659093	292.0000036	-2099.90561	-262.98644	264.064214	-2092.000004	-346.0160298	311.0402567
1183	39.4	-2269.004122	-142.0156801	151.9999994	-2329.999999	117.9999954	160.9956903	-2321.999972	38	11.00000006	-2248	-165.9995694	18.03450655	-2134.962281	-332.1835205	-39.18277961	-2088.004641	-387.2976473	-55.99902866	-2324	40	306.9999994	-2237	-139.9692667	292.0000004	-2100.042565	-262.1800986	263.1629403	-2092	-345.4180557	310.2214584
1184	39.43333333	-2269.002935	-142.0444703	151.9999997	-2330	117.9999963	160.9975241	-2321.999957	38	11.00000002	-2248	-165.999882	18.03057053	-2135.051052	-332.5335241	-39.5797715	-2087.999734	-387.0954955	-55.99539446	-2324	40	306.9999997	-2237	-139.9952914	291.9999994	-2100.036911	-261.5018038	262.2595712	-2091.999999	-344.8990477	309.5582499
1185	39.46666667	-2268.984489	-142.003845	152	-2330	117.9999995	160.999929	-2321.99999	38	11	-2248	-165.9999847	18.00488392	-2134.990214	-332.7425908	-39.94954966	-2088.000509	-386.985961	-55.99691864	-2324	40	307	-2237	-140.0042344	291.9999997	-2099.993038	-261.1543904	261.5324145	-2092	-344.5387348	309.1755295
1186	39.5	-2268.955741	-141.780153	152.0000001	-2330	118.0000006	161.0004586	-2322.000005	38	10.99999999	-2248	-165.9996889	17.99614668	-2134.985691	-332.7094077	-40.03721571	-2087.983972	-386.98976	-56.01570789	-2324	40	307.0000001	-2237	-140.0025438	292	-2099.953266	-260.9679128	261.0113982	-2092	-344.1123302	308.7164572
1187	39.53333333	-2268.99569	-141.4065875	152	-2330	118.0000003	161.0001834	-2322.000004	38	11	-2248	-165.9995542	17.99648119	-2135.17935	-332.5099368	-39.80159977	-2087.955536	-387.0395116	-56.04451355	-2324	40	307	-2237	-140.0004416	292.0000001	-2099.977043	-260.4680748	260.4144675	-2091.999999	-343.0816257	307.7009137
1188	39.56666667	-2269.21789	-141.0906497	152	-2330	118	160.999978	-2322	38	11	-2248	-166.0009439	17.99562995	-2135.585429	-332.115854	-39.40836747	-2087.997244	-387.0234271	-56.00385597	-2324	40	307	-2237	-139.9999981	292	-2100.175974	-259.561818	259.6929109	-2091.999996	-341.31602	306.3091013
1189	39.6	-2269.590582	-140.9654383	152	-2330.000001	117.9999999	160.9999558	-2321.999999	38	11	-2248	-166.004118	17.99767173	-2136.11234	-331.5159333	-39.09989228	-2088.223886	-386.8067281	-55.78014874	-2324	40	307	-2237	-139.9988521	292	-2100.593742	-258.7822241	259.3271307	-2091.999998	-339.5014141	305.1942234
1190	39.63333333	-2269.907393	-140.9694779	152	-2330	117.9999999	160.9999875	-2322	38	11	-2248	-166.0029344	18.01687883	-2136.672991	-330.8021542	-38.93616306	-2088.596354	-386.3637954	-55.40658172	-2324	40	307	-2237	-139.9958739	292	-2101.126412	-258.5725672	259.6986772	-2092.000014	-338.3711342	304.5839383
1191	39.66666667	-2270.034096	-140.995489	152	-2329.999998	118.0000001	161.0000039	-2322.000001	37.99999999	11	-2248	-165.9844897	18.04571631	-2137.165615	-330.1095571	-38.79420851	-2088.894207	-385.8837809	-55.0906436	-2324.000001	40	307	-2237.000001	-139.9971304	292	-2101.601421	-258.7968018	260.6199234	-2092.000039	-337.9871911	304.2930962
1192	39.7	-2270.030733	-141.0043098	152	-2329.999994	118.0000005	161.0000059	-2322	38.00000001	10.99999999	-2248	-165.9557414	18.0010085	-2137.410952	-329.6888538	-38.62823086	-2088.990764	-385.6383639	-54.96543874	-2324	40	307	-2237	-140.0156923	292	-2101.935756	-259.1690053	261.6989334	-2092	-337.9199561	304.2903131
1193	39.73333333	-2270.00468	-141.0024759	152	-2330	118.0000003	161.0000062	-2321.999998	38.00000004	11.00000001	-2248.000001	-165.9956895	17.76839579	-2137.317969	-329.6959595	-38.46328367	-2089.025144	-385.6608934	-54.96950654	-2323.999998	40	307	-2236.999998	-140.0444662	292	-2102.231606	-259.6192199	262.7570791	-2091.999802	-337.7468584	304.5682099
1194	39.76666667	-2269.995711	-141.000071	152	-2330.00003	117.9999978	160.9999997	-2321.999994	38.00000006	11.00000005	-2248	-166.2178889	17.38960762	-2137.07395	-329.8631253	-38.27049908	-2089.218047	-385.6571357	-54.99554317	-2323.999994	40	307	-2236.999994	-140.0038411	292	-2102.632557	-260.1467119	263.7938404	-2091.999626	-337.4000137	304.8890417
1195	39.8	-2269.997499	-140.9995415	152	-2330.000055	117.9999943	160.9999716	-2322	37.99999988	11.00000006	-2247.999998	-166.5905816	17.07890838	-2137.004486	-329.7699376	-38.06741259	-2089.583527	-385.4200016	-55.00426716	-2324	40	307	-2237	-139.7801523	292	-2103.13132	-260.6573657	264.7864887	-2092.000302	-337.1072343	305.0519634
1196	39.83333333	-2269.999916	-140.9998165	152	-2329.999952	118.0000003	160.9999459	-2322.000028	37.99999949	10.99999987	-2247.999994	-166.9073954	16.96264655	-2137.26648	-329.3747489	-37.94213817	-2089.921972	-385.1037981	-55.00211879	-2324.000028	40	307	-2237.000028	-139.406588	292	-2103.600917	-260.9683443	265.6106146	-2092.002482	-336.9965816	305.0643039
1197	39.86666667	-2270.000459	-141.0000215	152	-2329.999627	118.0000297	161.0000416	-2322.000054	37.99999964	10.99999947	-2248	-167.0341023	16.97074543	-2137.650342	-329.0520299	-37.97074655	-2090.080226	-384.9300302	-54.99961434	-2324.000054	40	307	-2237.000054	-139.09065	292	-2103.943181	-260.9277665	266.1040779	-2092.00314	-336.9223894	304.9557077
1198	39.9	-2270.000186	-141.0000437	152	-2329.999544	118.0000546	161.0003545	-2321.999958	38.00000191	10.99999966	-2248.000028	-167.0307316	16.99650394	-2137.694724	-329.1869861	-38.21272337	-2090.03128	-384.9700256	-55.00050328	-2323.999957	40	307	-2236.999957	-138.9654383	292	-2104.179763	-260.6469605	266.2425535	-2091.993249	-336.737287	304.7424456
